<svg xmlns="http://www.w3.org/2000/svg" width="35" height="40" viewBox="0 0 35 40">
  <g id="left_arrow_ic" transform="translate(35 40) rotate(180)" fill="#fff">
    <path d="M 0.5000010132789612 39.13799285888672 L 0.5000010132789612 31.14687919616699 L 19.24798011779785 20.43390655517578 L 20.0077018737793 19.99978637695313 L 19.24798011779785 19.56566619873047 L 0.5000010132789612 8.85267448425293 L 0.5000010132789612 0.8615776300430298 L 33.99232864379883 19.99978637695313 L 0.5000010132789612 39.13799285888672 Z" stroke="none"/>
    <path d="M 1 1.723148345947266 L 1 8.562507629394531 L 19.49604034423828 19.13153648376465 L 21.01550102233887 19.99978637695313 L 19.49604034423828 20.8680362701416 L 1 31.43704605102539 L 1 38.27640533447266 L 32.98453140258789 19.99978637695313 L 1 1.723148345947266 M 0 -3.814697265625e-06 L 0.001499176025390625 0.00084686279296875 L 35.0001220703125 19.99978637695313 L 0 39.99957656860352 L 0 30.85671615600586 L 18.99991035461426 19.99978637695313 L 0 9.14283561706543 L 0 0.00171661376953125 L 0 -3.814697265625e-06 Z" stroke="none" fill="#fff"/>
  </g>
</svg>
